<svg id="my-svg" width="100%" xmlns="http://www.w3.org/2000/svg" xmlns:xlink="http://www.w3.org/1999/xlink" class="flowchart" style="max-width: 1413.87px; background-color: transparent;" viewBox="0 0 1413.87109375 1316.34375" role="graphics-document document" aria-roledescription="flowchart-v2"><style>#my-svg{font-family:"trebuchet ms",verdana,arial,sans-serif;font-size:16px;fill:#333;}@keyframes edge-animation-frame{from{stroke-dashoffset:0;}}@keyframes dash{to{stroke-dashoffset:0;}}#my-svg .edge-animation-slow{stroke-dasharray:9,5!important;stroke-dashoffset:900;animation:dash 50s linear infinite;stroke-linecap:round;}#my-svg .edge-animation-fast{stroke-dasharray:9,5!important;stroke-dashoffset:900;animation:dash 20s linear infinite;stroke-linecap:round;}#my-svg .error-icon{fill:#552222;}#my-svg .error-text{fill:#552222;stroke:#552222;}#my-svg .edge-thickness-normal{stroke-width:1px;}#my-svg .edge-thickness-thick{stroke-width:3.5px;}#my-svg .edge-pattern-solid{stroke-dasharray:0;}#my-svg .edge-thickness-invisible{stroke-width:0;fill:none;}#my-svg .edge-pattern-dashed{stroke-dasharray:3;}#my-svg .edge-pattern-dotted{stroke-dasharray:2;}#my-svg .marker{fill:#333333;stroke:#333333;}#my-svg .marker.cross{stroke:#333333;}#my-svg svg{font-family:"trebuchet ms",verdana,arial,sans-serif;font-size:16px;}#my-svg p{margin:0;}#my-svg .label{font-family:"trebuchet ms",verdana,arial,sans-serif;color:#333;}#my-svg .cluster-label text{fill:#333;}#my-svg .cluster-label span{color:#333;}#my-svg .cluster-label span p{background-color:transparent;}#my-svg .label text,#my-svg span{fill:#333;color:#333;}#my-svg .node rect,#my-svg .node circle,#my-svg .node ellipse,#my-svg .node polygon,#my-svg .node path{fill:#ECECFF;stroke:#9370DB;stroke-width:1px;}#my-svg .rough-node .label text,#my-svg .node .label text,#my-svg .image-shape .label,#my-svg .icon-shape .label{text-anchor:middle;}#my-svg .node .katex path{fill:#000;stroke:#000;stroke-width:1px;}#my-svg .rough-node .label,#my-svg .node .label,#my-svg .image-shape .label,#my-svg .icon-shape .label{text-align:center;}#my-svg .node.clickable{cursor:pointer;}#my-svg .root .anchor path{fill:#333333!important;stroke-width:0;stroke:#333333;}#my-svg .arrowheadPath{fill:#333333;}#my-svg .edgePath .path{stroke:#333333;stroke-width:1px;}#my-svg .flowchart-link{stroke:#333333;fill:none;}#my-svg .edgeLabel{background-color:rgba(232,232,232, 0.8);text-align:center;}#my-svg .edgeLabel p{background-color:rgba(232,232,232, 0.8);}#my-svg .edgeLabel rect{opacity:0.5;background-color:rgba(232,232,232, 0.8);fill:rgba(232,232,232, 0.8);}#my-svg .labelBkg{background-color:rgba(232, 232, 232, 0.5);}#my-svg .cluster rect{fill:#ffffde;stroke:#aaaa33;stroke-width:1px;}#my-svg .cluster text{fill:#333;}#my-svg .cluster span{color:#333;}#my-svg div.mermaidTooltip{position:absolute;text-align:center;max-width:200px;padding:2px;font-family:"trebuchet ms",verdana,arial,sans-serif;font-size:12px;background:hsl(80, 100%, 96.2745098039%);border:1px solid #aaaa33;border-radius:2px;pointer-events:none;z-index:100;}#my-svg .flowchartTitleText{text-anchor:middle;font-size:18px;fill:#333;}#my-svg rect.text{fill:none;stroke-width:0;}#my-svg .icon-shape,#my-svg .image-shape{background-color:rgba(232,232,232, 0.8);text-align:center;}#my-svg .icon-shape p,#my-svg .image-shape p{background-color:rgba(232,232,232, 0.8);padding:2px;}#my-svg .icon-shape .label rect,#my-svg .image-shape .label rect{opacity:0.5;background-color:rgba(232,232,232, 0.8);fill:rgba(232,232,232, 0.8);}#my-svg .label-icon{display:inline-block;height:1em;overflow:visible;vertical-align:-0.125em;}#my-svg .node .label-icon path{fill:currentColor;stroke:revert;stroke-width:revert;}#my-svg .node .neo-node{stroke:#9370DB;}#my-svg [data-look="neo"].node rect,#my-svg [data-look="neo"].cluster rect,#my-svg [data-look="neo"].node polygon{stroke:#9370DB;filter:drop-shadow(1px 2px 2px rgba(185, 185, 185, 1));}#my-svg [data-look="neo"].swimlane.cluster rect{filter:none;}#my-svg [data-look="neo"].node path{stroke:#9370DB;stroke-width:1px;}#my-svg [data-look="neo"].node .outer-path{filter:drop-shadow(1px 2px 2px rgba(185, 185, 185, 1));}#my-svg [data-look="neo"].node .neo-line path{stroke:#9370DB;filter:none;}#my-svg [data-look="neo"].node circle{stroke:#9370DB;filter:drop-shadow(1px 2px 2px rgba(185, 185, 185, 1));}#my-svg [data-look="neo"].node circle .state-start{fill:#000000;}#my-svg [data-look="neo"].icon-shape .icon{fill:#9370DB;filter:drop-shadow(1px 2px 2px rgba(185, 185, 185, 1));}#my-svg [data-look="neo"].icon-shape .icon-neo path{stroke:#9370DB;filter:drop-shadow(1px 2px 2px rgba(185, 185, 185, 1));}#my-svg :root{--mermaid-font-family:"trebuchet ms",verdana,arial,sans-serif;}</style><g><marker id="my-svg_flowchart-v2-pointEnd" class="marker flowchart-v2" viewBox="0 0 10 10" refX="5" refY="5" markerUnits="userSpaceOnUse" markerWidth="8" markerHeight="8" orient="auto"><path d="M 0 0 L 10 5 L 0 10 z" class="arrowMarkerPath" style="stroke-width: 1; stroke-dasharray: 1, 0;"/></marker><marker id="my-svg_flowchart-v2-pointStart" class="marker flowchart-v2" viewBox="0 0 10 10" refX="4.5" refY="5" markerUnits="userSpaceOnUse" markerWidth="8" markerHeight="8" orient="auto"><path d="M 0 5 L 10 10 L 10 0 z" class="arrowMarkerPath" style="stroke-width: 1; stroke-dasharray: 1, 0;"/></marker><marker id="my-svg_flowchart-v2-pointEnd-margin" class="marker flowchart-v2" viewBox="0 0 11.5 14" refX="11.5" refY="7" markerUnits="userSpaceOnUse" markerWidth="10.5" markerHeight="14" orient="auto"><path d="M 0 0 L 11.5 7 L 0 14 z" class="arrowMarkerPath" style="stroke-width: 0; stroke-dasharray: 1, 0;"/></marker><marker id="my-svg_flowchart-v2-pointStart-margin" class="marker flowchart-v2" viewBox="0 0 11.5 14" refX="1" refY="7" markerUnits="userSpaceOnUse" markerWidth="11.5" markerHeight="14" orient="auto"><polygon points="0,7 11.5,14 11.5,0" class="arrowMarkerPath" style="stroke-width: 0; stroke-dasharray: 1, 0;"/></marker><marker id="my-svg_flowchart-v2-circleEnd" class="marker flowchart-v2" viewBox="0 0 10 10" refX="11" refY="5" markerUnits="userSpaceOnUse" markerWidth="11" markerHeight="11" orient="auto"><circle cx="5" cy="5" r="5" class="arrowMarkerPath" style="stroke-width: 1; stroke-dasharray: 1, 0;"/></marker><marker id="my-svg_flowchart-v2-circleStart" class="marker flowchart-v2" viewBox="0 0 10 10" refX="-1" refY="5" markerUnits="userSpaceOnUse" markerWidth="11" markerHeight="11" orient="auto"><circle cx="5" cy="5" r="5" class="arrowMarkerPath" style="stroke-width: 1; stroke-dasharray: 1, 0;"/></marker><marker id="my-svg_flowchart-v2-circleEnd-margin" class="marker flowchart-v2" viewBox="0 0 10 10" refY="5" refX="12.25" markerUnits="userSpaceOnUse" markerWidth="14" markerHeight="14" orient="auto"><circle cx="5" cy="5" r="5" class="arrowMarkerPath" style="stroke-width: 0; stroke-dasharray: 1, 0;"/></marker><marker id="my-svg_flowchart-v2-circleStart-margin" class="marker flowchart-v2" viewBox="0 0 10 10" refX="-2" refY="5" markerUnits="userSpaceOnUse" markerWidth="14" markerHeight="14" orient="auto"><circle cx="5" cy="5" r="5" class="arrowMarkerPath" style="stroke-width: 0; stroke-dasharray: 1, 0;"/></marker><marker id="my-svg_flowchart-v2-crossEnd" class="marker cross flowchart-v2" viewBox="0 0 11 11" refX="12" refY="5.2" markerUnits="userSpaceOnUse" markerWidth="11" markerHeight="11" orient="auto"><path d="M 1,1 l 9,9 M 10,1 l -9,9" class="arrowMarkerPath" style="stroke-width: 2; stroke-dasharray: 1, 0;"/></marker><marker id="my-svg_flowchart-v2-crossStart" class="marker cross flowchart-v2" viewBox="0 0 11 11" refX="-1" refY="5.2" markerUnits="userSpaceOnUse" markerWidth="11" markerHeight="11" orient="auto"><path d="M 1,1 l 9,9 M 10,1 l -9,9" class="arrowMarkerPath" style="stroke-width: 2; stroke-dasharray: 1, 0;"/></marker><marker id="my-svg_flowchart-v2-crossEnd-margin" class="marker cross flowchart-v2" viewBox="0 0 15 15" refX="17.7" refY="7.5" markerUnits="userSpaceOnUse" markerWidth="12" markerHeight="12" orient="auto"><path d="M 1,1 L 14,14 M 1,14 L 14,1" class="arrowMarkerPath" style="stroke-width: 2.5;"/></marker><marker id="my-svg_flowchart-v2-crossStart-margin" class="marker cross flowchart-v2" viewBox="0 0 15 15" refX="-3.5" refY="7.5" markerUnits="userSpaceOnUse" markerWidth="12" markerHeight="12" orient="auto"><path d="M 1,1 L 14,14 M 1,14 L 14,1" class="arrowMarkerPath" style="stroke-width: 2.5; stroke-dasharray: 1, 0;"/></marker><g class="root"><g class="clusters"><g class="cluster" id="my-svg-obs" data-look="classic"><rect style="" x="8" y="275" width="214.015625" height="456.34375"/><g class="cluster-label" transform="translate(67.828125, 275)"><foreignObject width="94.359375" height="24"><div xmlns="http://www.w3.org/1999/xhtml" style="display: table-cell; white-space: nowrap; line-height: 1.5;"><span class="nodeLabel"><p>Observability</p></span></div></foreignObject></g></g><g class="cluster" id="my-svg-stores" data-look="classic"><rect style="" x="336.98046875" y="958.34375" width="695.9765625" height="350"/><g class="cluster-label" transform="translate(635.78125, 958.34375)"><foreignObject width="98.375" height="24"><div xmlns="http://www.w3.org/1999/xhtml" style="display: table-cell; white-space: nowrap; line-height: 1.5;"><span class="nodeLabel"><p>State + stores</p></span></div></foreignObject></g></g><g class="cluster" id="my-svg-core" data-look="classic"><rect style="" x="242.015625" y="275" width="927.7421875" height="633.34375"/><g class="cluster-label" transform="translate(628.76171875, 275)"><foreignObject width="154.25" height="24"><div xmlns="http://www.w3.org/1999/xhtml" style="display: table-cell; white-space: nowrap; line-height: 1.5;"><span class="nodeLabel"><p>Pipeline (pipeline.py)</p></span></div></foreignObject></g></g><g class="cluster" id="my-svg-entry" data-look="classic"><rect style="" x="41.50390625" y="97" width="1364.3671875" height="128"/><g class="cluster-label" transform="translate(680.578125, 97)"><foreignObject width="86.21875" height="24"><div xmlns="http://www.w3.org/1999/xhtml" style="display: table-cell; white-space: nowrap; line-height: 1.5;"><span class="nodeLabel"><p>Entry points</p></span></div></foreignObject></g></g></g><g class="edgePaths"><path d="M875.193,29.777L762.187,36.815C649.18,43.852,423.166,57.926,310.159,69.13C197.152,80.333,197.152,88.667,197.152,98.333C197.152,108,197.152,119,197.152,124.5L197.152,130" id="my-svg-L_user_cli_0" class="edge-thickness-normal edge-pattern-solid edge-thickness-normal edge-pattern-solid flowchart-link" style=";" data-edge="true" data-et="edge" data-id="L_user_cli_0" data-points="W3sieCI6ODc1LjE5MzM4NjMwMTMwNywieSI6MjkuNzc3NDkwODcxMzU3Mjk4fSx7IngiOjE5Ny4xNTIzNDM3NSwieSI6NzJ9LHsieCI6MTk3LjE1MjM0Mzc1LCJ5Ijo5N30seyJ4IjoxOTcuMTUyMzQzNzUsInkiOjEzNH1d" data-look="classic" marker-end="url(#my-svg_flowchart-v2-pointEnd)"/><path d="M931.34,31.451L986.675,38.209C1042.009,44.968,1152.679,58.484,1208.013,69.409C1263.348,80.333,1263.348,88.667,1263.348,98.333C1263.348,108,1263.348,119,1263.348,124.5L1263.348,130" id="my-svg-L_user_admin_0" class="edge-thickness-normal edge-pattern-solid edge-thickness-normal edge-pattern-solid flowchart-link" style=";" data-edge="true" data-et="edge" data-id="L_user_admin_0" data-points="W3sieCI6OTMxLjM0MDIzNzMwMDM0MjQsInkiOjMxLjQ1MTM5MTc5MzY0MjExN30seyJ4IjoxMjYzLjM0NzY1NjI1LCJ5Ijo3Mn0seyJ4IjoxMjYzLjM0NzY1NjI1LCJ5Ijo5N30seyJ4IjoxMjYzLjM0NzY1NjI1LCJ5IjoxMzR9XQ==" data-look="classic" marker-end="url(#my-svg_flowchart-v2-pointEnd)"/><path d="M903.383,47.5L903.299,51.583C903.216,55.667,903.049,63.833,902.966,72.083C902.883,80.333,902.883,88.667,902.883,96.333C902.883,104,902.883,111,902.883,114.5L902.883,118" id="my-svg-L_user_api_0" class="edge-thickness-normal edge-pattern-solid edge-thickness-normal edge-pattern-solid flowchart-link" style=";" data-edge="true" data-et="edge" data-id="L_user_api_0" data-points="W3sieCI6OTAzLjM4MjgxMjUsInkiOjQ3LjV9LHsieCI6OTAyLjg4MjgxMjUsInkiOjcyfSx7IngiOjkwMi44ODI4MTI1LCJ5Ijo5N30seyJ4Ijo5MDIuODgyODEyNSwieSI6MTIyfV0=" data-look="classic" marker-end="url(#my-svg_flowchart-v2-pointEnd)"/><path d="M259.321,188L273.52,194.167C287.719,200.333,316.117,212.667,330.317,223C344.516,233.333,344.516,241.667,344.516,250C344.516,258.333,344.516,266.667,391.791,279.437C439.066,292.208,533.616,309.416,580.891,318.02L628.166,326.624" id="my-svg-L_cli_firewall_0" class="edge-thickness-normal edge-pattern-solid edge-thickness-normal edge-pattern-solid flowchart-link" style=";" data-edge="true" data-et="edge" data-id="L_cli_firewall_0" data-points="W3sieCI6MjU5LjMyMTIyODAyNzM0Mzc1LCJ5IjoxODh9LHsieCI6MzQ0LjUxNTYyNSwieSI6MjI1fSx7IngiOjM0NC41MTU2MjUsInkiOjI1MH0seyJ4IjozNDQuNTE1NjI1LCJ5IjoyNzV9LHsieCI6NjMyLjEwMTU2MjUsInkiOjMyNy4zNDAxOTk0MzQ5OTY1fV0=" data-look="classic" marker-end="url(#my-svg_flowchart-v2-pointEnd)"/><path d="M950.669,200L955.774,204.167C960.879,208.333,971.09,216.667,976.195,225C981.301,233.333,981.301,241.667,981.301,250C981.301,258.333,981.301,266.667,967.064,275.769C952.827,284.872,924.354,294.744,910.118,299.68L895.881,304.617" id="my-svg-L_api_firewall_0" class="edge-thickness-normal edge-pattern-solid edge-thickness-normal edge-pattern-solid flowchart-link" style=";" data-edge="true" data-et="edge" data-id="L_api_firewall_0" data-points="W3sieCI6OTUwLjY2ODc2MjIwNzAzMTIsInkiOjIwMH0seyJ4Ijo5ODEuMzAwNzgxMjUsInkiOjIyNX0seyJ4Ijo5ODEuMzAwNzgxMjUsInkiOjI1MH0seyJ4Ijo5ODEuMzAwNzgxMjUsInkiOjI3NX0seyJ4Ijo4OTIuMTAxNTYyNSwieSI6MzA1LjkyNjg0NjY1NDE5MjN9XQ==" data-look="classic" marker-end="url(#my-svg_flowchart-v2-pointEnd)"/><path d="M706.74,402L702.217,406.167C697.694,410.333,688.648,418.667,684.125,426.333C679.602,434,679.602,441,679.602,444.5L679.602,448" id="my-svg-L_firewall_router_0" class="edge-thickness-normal edge-pattern-solid edge-thickness-normal edge-pattern-solid flowchart-link" style=";" data-edge="true" data-et="edge" data-id="L_firewall_router_0" data-points="W3sieCI6NzA2LjczOTcyMDM5NDczNjksInkiOjQwMn0seyJ4Ijo2NzkuNjAxNTYyNSwieSI6NDI3fSx7IngiOjY3OS42MDE1NjI1LCJ5Ijo0NTJ9XQ==" data-look="classic" marker-end="url(#my-svg_flowchart-v2-pointEnd)"/><path d="M608.068,634.81L587.382,650.899C566.696,666.988,525.325,699.166,504.639,721.421C483.953,743.677,483.953,756.01,483.953,769.677C483.953,783.344,483.953,798.344,483.953,805.844L483.953,813.344" id="my-svg-L_router_crag_0" class="edge-thickness-normal edge-pattern-solid edge-thickness-normal edge-pattern-solid flowchart-link" style=";" data-edge="true" data-et="edge" data-id="L_router_crag_0" data-points="W3sieCI6NjA4LjA2NzU2MTM0MDQzNDgsInkiOjYzNC44MDk3NDg4NDA0MzQ4fSx7IngiOjQ4My45NTMxMjUsInkiOjczMS4zNDM3NX0seyJ4Ijo0ODMuOTUzMTI1LCJ5Ijo3NjguMzQzNzV9LHsieCI6NDgzLjk1MzEyNSwieSI6ODE3LjM0Mzc1fV0=" data-look="classic" marker-end="url(#my-svg_flowchart-v2-pointEnd)"/><path d="M733.349,652.597L742.956,665.721C752.563,678.846,771.778,705.095,781.385,724.386C790.992,743.677,790.992,756.01,790.992,767.677C790.992,779.344,790.992,790.344,790.992,795.844L790.992,801.344" id="my-svg-L_router_sqlg_0" class="edge-thickness-normal edge-pattern-solid edge-thickness-normal edge-pattern-solid flowchart-link" style=";" data-edge="true" data-et="edge" data-id="L_router_sqlg_0" data-points="W3sieCI6NzMzLjM0ODc5Mzc1ODg5MjYsInkiOjY1Mi41OTY1MTg3NDExMDc0fSx7IngiOjc5MC45OTIxODc1LCJ5Ijo3MzEuMzQzNzV9LHsieCI6NzkwLjk5MjE4NzUsInkiOjc2OC4zNDM3NX0seyJ4Ijo3OTAuOTkyMTg3NSwieSI6ODA1LjM0Mzc1fV0=" data-look="classic" marker-end="url(#my-svg_flowchart-v2-pointEnd)"/><path d="M450.871,871.344L443.315,877.51C435.759,883.677,420.647,896.01,413.091,906.344C405.535,916.677,405.535,925.01,405.535,933.344C405.535,941.677,405.535,950.01,405.535,975.244C405.535,1000.477,405.535,1042.611,405.535,1063.677L405.535,1084.744" id="my-svg-L_crag_qdrant_0" class="edge-thickness-normal edge-pattern-solid edge-thickness-normal edge-pattern-solid flowchart-link" style=";" data-edge="true" data-et="edge" data-id="L_crag_qdrant_0" data-points="W3sieCI6NDUwLjg3MDU0NDQzMzU5Mzc1LCJ5Ijo4NzEuMzQzNzV9LHsieCI6NDA1LjUzNTE1NjI1LCJ5Ijo5MDguMzQzNzV9LHsieCI6NDA1LjUzNTE1NjI1LCJ5Ijo5MzMuMzQzNzV9LHsieCI6NDA1LjUzNTE1NjI1LCJ5Ijo5NTguMzQzNzV9LHsieCI6NDA1LjUzNTE1NjI1LCJ5IjoxMDg4Ljc0MzkxMTc0MzE2NH1d" data-look="classic" marker-end="url(#my-svg_flowchart-v2-pointEnd)"/><path d="M660.992,878.153L641.644,883.184C622.296,888.216,583.599,898.28,564.251,907.479C544.902,916.677,544.902,925.01,544.902,933.344C544.902,941.677,544.902,950.01,544.902,975.044C544.902,1000.077,544.902,1041.81,544.902,1062.677L544.902,1083.544" id="my-svg-L_sqlg_sqlite_0" class="edge-thickness-normal edge-pattern-solid edge-thickness-normal edge-pattern-solid flowchart-link" style=";" data-edge="true" data-et="edge" data-id="L_sqlg_sqlite_0" data-points="W3sieCI6NjYwLjk5MjE4NzUsInkiOjg3OC4xNTI1NDA2MTU3MjQxfSx7IngiOjU0NC45MDIzNDM3NSwieSI6OTA4LjM0Mzc1fSx7IngiOjU0NC45MDIzNDM3NSwieSI6OTMzLjM0Mzc1fSx7IngiOjU0NC45MDIzNDM3NSwieSI6OTU4LjM0Mzc1fSx7IngiOjU0NC45MDIzNDM3NSwieSI6MTA4Ny41NDM4MDc5ODMzOTg0fV0=" data-look="classic" marker-end="url(#my-svg_flowchart-v2-pointEnd)"/><path d="M743.206,883.344L738.101,887.51C732.996,891.677,722.785,900.01,717.68,908.344C712.574,916.677,712.574,925.01,712.574,933.344C712.574,941.677,712.574,950.01,739.013,976.91C765.451,1003.809,818.328,1049.275,844.767,1072.008L871.205,1094.741" id="my-svg-L_sqlg_ckpt_0" class="edge-thickness-normal edge-pattern-solid edge-thickness-normal edge-pattern-solid flowchart-link" style=";" data-edge="true" data-et="edge" data-id="L_sqlg_ckpt_0" data-points="W3sieCI6NzQzLjIwNjIzNzc5Mjk2ODgsInkiOjg4My4zNDM3NX0seyJ4Ijo3MTIuNTc0MjE4NzUsInkiOjkwOC4zNDM3NX0seyJ4Ijo3MTIuNTc0MjE4NzUsInkiOjkzMy4zNDM3NX0seyJ4Ijo3MTIuNTc0MjE4NzUsInkiOjk1OC4zNDM3NX0seyJ4Ijo4NzQuMjM4MjgxMjUsInkiOjEwOTcuMzQ4NjgzOTcxMTk5fV0=" data-look="classic" marker-end="url(#my-svg_flowchart-v2-pointEnd)"/><path d="M1263.348,188L1263.348,194.167C1263.348,200.333,1263.348,212.667,1263.348,223C1263.348,233.333,1263.348,241.667,1263.348,250C1263.348,258.333,1263.348,266.667,1263.348,283.5C1263.348,300.333,1263.348,325.667,1263.348,351C1263.348,376.333,1263.348,401.667,1263.348,439.695C1263.348,477.724,1263.348,528.448,1263.348,579.172C1263.348,629.896,1263.348,680.62,1263.348,712.148C1263.348,743.677,1263.348,756.01,1263.348,774.844C1263.348,793.677,1263.348,819.01,1263.348,842.344C1263.348,865.677,1263.348,887.01,1215.211,901.844C1167.074,916.677,1070.801,925.01,1022.664,933.344C974.527,941.677,974.527,950.01,970.101,974.367C965.674,998.723,956.821,1039.102,952.394,1059.292L947.968,1079.482" id="my-svg-L_admin_ckpt_0" class="edge-thickness-normal edge-pattern-solid edge-thickness-normal edge-pattern-solid flowchart-link" style=";" data-edge="true" data-et="edge" data-id="L_admin_ckpt_0" data-points="W3sieCI6MTI2My4zNDc2NTYyNSwieSI6MTg4fSx7IngiOjEyNjMuMzQ3NjU2MjUsInkiOjIyNX0seyJ4IjoxMjYzLjM0NzY1NjI1LCJ5IjoyNTB9LHsieCI6MTI2My4zNDc2NTYyNSwieSI6Mjc1fSx7IngiOjEyNjMuMzQ3NjU2MjUsInkiOjM1MX0seyJ4IjoxMjYzLjM0NzY1NjI1LCJ5Ijo0Mjd9LHsieCI6MTI2My4zNDc2NTYyNSwieSI6NTc5LjE3MTg3NX0seyJ4IjoxMjYzLjM0NzY1NjI1LCJ5Ijo3MzEuMzQzNzV9LHsieCI6MTI2My4zNDc2NTYyNSwieSI6NzY4LjM0Mzc1fSx7IngiOjEyNjMuMzQ3NjU2MjUsInkiOjg0NC4zNDM3NX0seyJ4IjoxMjYzLjM0NzY1NjI1LCJ5Ijo5MDguMzQzNzV9LHsieCI6OTc0LjUyNzM0Mzc1LCJ5Ijo5MzMuMzQzNzV9LHsieCI6OTc0LjUyNzM0Mzc1LCJ5Ijo5NTguMzQzNzV9LHsieCI6OTQ3LjExMTI1NTkzNTk0MTUsInkiOjEwODMuMzg5MDI0NDA5NTE4fV0=" data-look="classic" marker-end="url(#my-svg_flowchart-v2-pointEnd)"/><path d="M778.359,171.115L667.801,180.096C557.242,189.077,336.125,207.038,225.566,220.186C115.008,233.333,115.008,241.667,115.008,250C115.008,258.333,115.008,266.667,115.008,278.333C115.008,290,115.008,305,115.008,312.5L115.008,320" id="my-svg-L_api_prom_0" class="edge-thickness-normal edge-pattern-solid edge-thickness-normal edge-pattern-solid flowchart-link" style=";" data-edge="true" data-et="edge" data-id="L_api_prom_0" data-points="W3sieCI6Nzc4LjM1OTM3NSwieSI6MTcxLjExNTE4MzI0NjA3MzN9LHsieCI6MTE1LjAwNzgxMjUsInkiOjIyNX0seyJ4IjoxMTUuMDA3ODEyNSwieSI6MjUwfSx7IngiOjExNS4wMDc4MTI1LCJ5IjoyNzV9LHsieCI6MTE1LjAwNzgxMjUsInkiOjMyNH1d" data-look="classic" marker-end="url(#my-svg_flowchart-v2-pointEnd)"/><path d="M115.008,378L115.008,386.167C115.008,394.333,115.008,410.667,115.008,439.029C115.008,467.391,115.008,507.781,115.008,527.977L115.008,548.172" id="my-svg-L_prom_graf_0" class="edge-thickness-normal edge-pattern-solid edge-thickness-normal edge-pattern-solid flowchart-link" style=";" data-edge="true" data-et="edge" data-id="L_prom_graf_0" data-points="W3sieCI6MTE1LjAwNzgxMjUsInkiOjM3OH0seyJ4IjoxMTUuMDA3ODEyNSwieSI6NDI3fSx7IngiOjExNS4wMDc4MTI1LCJ5Ijo1NTIuMTcxODc1fV0=" data-look="classic" marker-end="url(#my-svg_flowchart-v2-pointEnd)"/><path d="M610.992,865.282L654.536,872.459C698.079,879.636,785.167,893.99,874.036,905.334C962.905,916.677,1053.556,925.01,1098.882,933.344C1144.207,941.677,1144.207,950.01,1146.071,957.753C1147.936,965.495,1151.665,972.646,1153.529,976.221L1155.393,979.797" id="my-svg-L_crag_facade_0" class="edge-thickness-normal edge-pattern-solid edge-thickness-normal edge-pattern-solid flowchart-link" style=";" data-edge="true" data-et="edge" data-id="L_crag_facade_0" data-points="W3sieCI6NjEwLjk5MjE4NzUsInkiOjg2NS4yODI0MTUwNTcwODk3fSx7IngiOjg3Mi4yNTM5MDYyNSwieSI6OTA4LjM0Mzc1fSx7IngiOjExNDQuMjA3MDMxMjUsInkiOjkzMy4zNDM3NX0seyJ4IjoxMTQ0LjIwNzAzMTI1LCJ5Ijo5NTguMzQzNzV9LHsieCI6MTE1Ny4yNDI3NDU1MzU3MTQyLCJ5Ijo5ODMuMzQzNzV9XQ==" data-look="classic" marker-end="url(#my-svg_flowchart-v2-pointEnd)"/><path d="M888.297,883.344L898.693,887.51C909.089,891.677,929.88,900.01,975.865,908.344C1021.85,916.677,1093.029,925.01,1128.618,933.344C1164.207,941.677,1164.207,950.01,1165.652,957.726C1167.097,965.442,1169.987,972.541,1171.432,976.09L1172.877,979.639" id="my-svg-L_sqlg_facade_0" class="edge-thickness-normal edge-pattern-solid edge-thickness-normal edge-pattern-solid flowchart-link" style=";" data-edge="true" data-et="edge" data-id="L_sqlg_facade_0" data-points="W3sieCI6ODg4LjI5Njk5NzA3MDMxMjUsInkiOjg4My4zNDM3NX0seyJ4Ijo5NTAuNjcxODc1LCJ5Ijo5MDguMzQzNzV9LHsieCI6MTE2NC4yMDcwMzEyNSwieSI6OTMzLjM0Mzc1fSx7IngiOjExNjQuMjA3MDMxMjUsInkiOjk1OC4zNDM3NX0seyJ4IjoxMTc0LjM4NTYwMjY3ODU3MTMsInkiOjk4My4zNDM3NX1d" data-look="classic" marker-end="url(#my-svg_flowchart-v2-pointEnd)"/><path d="M892.102,386.151L917.28,392.959C942.458,399.768,992.815,413.384,1017.993,445.554C1043.172,477.724,1043.172,528.448,1043.172,579.172C1043.172,629.896,1043.172,680.62,1043.172,712.148C1043.172,743.677,1043.172,756.01,1043.172,774.844C1043.172,793.677,1043.172,819.01,1043.172,842.344C1043.172,865.677,1043.172,887.01,1078.553,901.844C1113.934,916.677,1184.695,925.01,1220.076,933.344C1255.457,941.677,1255.457,950.01,1255.057,957.681C1254.656,965.352,1253.855,972.361,1253.455,975.865L1253.054,979.37" id="my-svg-L_firewall_facade_0" class="edge-thickness-normal edge-pattern-dotted edge-thickness-normal edge-pattern-solid flowchart-link" style=";" data-edge="true" data-et="edge" data-id="L_firewall_facade_0" data-points="W3sieCI6ODkyLjEwMTU2MjUsInkiOjM4Ni4xNTEzNDY2OTM3MjF9LHsieCI6MTA0My4xNzE4NzUsInkiOjQyN30seyJ4IjoxMDQzLjE3MTg3NSwieSI6NTc5LjE3MTg3NX0seyJ4IjoxMDQzLjE3MTg3NSwieSI6NzMxLjM0Mzc1fSx7IngiOjEwNDMuMTcxODc1LCJ5Ijo3NjguMzQzNzV9LHsieCI6MTA0My4xNzE4NzUsInkiOjg0NC4zNDM3NX0seyJ4IjoxMDQzLjE3MTg3NSwieSI6OTA4LjM0Mzc1fSx7IngiOjEyNTUuNDU3MDMxMjUsInkiOjkzMy4zNDM3NX0seyJ4IjoxMjU1LjQ1NzAzMTI1LCJ5Ijo5NTguMzQzNzV9LHsieCI6MTI1Mi41OTk4ODgzOTI4NTcsInkiOjk4My4zNDM3NX1d" data-look="classic" marker-end="url(#my-svg_flowchart-v2-pointEnd)"/></g><g class="edgeLabels"><g class="edgeLabel"><g class="label" data-id="L_user_cli_0" transform="translate(0, 0)"><foreignObject width="0" height="0"><div xmlns="http://www.w3.org/1999/xhtml" class="labelBkg" style="display: table-cell; white-space: nowrap; line-height: 1.5; max-width: 200px; text-align: center;"><span class="edgeLabel"></span></div></foreignObject></g></g><g class="edgeLabel"><g class="label" data-id="L_user_admin_0" transform="translate(0, 0)"><foreignObject width="0" height="0"><div xmlns="http://www.w3.org/1999/xhtml" class="labelBkg" style="display: table-cell; white-space: nowrap; line-height: 1.5; max-width: 200px; text-align: center;"><span class="edgeLabel"></span></div></foreignObject></g></g><g class="edgeLabel"><g class="label" data-id="L_user_api_0" transform="translate(0, 0)"><foreignObject width="0" height="0"><div xmlns="http://www.w3.org/1999/xhtml" class="labelBkg" style="display: table-cell; white-space: nowrap; line-height: 1.5; max-width: 200px; text-align: center;"><span class="edgeLabel"></span></div></foreignObject></g></g><g class="edgeLabel"><g class="label" data-id="L_cli_firewall_0" transform="translate(0, 0)"><foreignObject width="0" height="0"><div xmlns="http://www.w3.org/1999/xhtml" class="labelBkg" style="display: table-cell; white-space: nowrap; line-height: 1.5; max-width: 200px; text-align: center;"><span class="edgeLabel"></span></div></foreignObject></g></g><g class="edgeLabel"><g class="label" data-id="L_api_firewall_0" transform="translate(0, 0)"><foreignObject width="0" height="0"><div xmlns="http://www.w3.org/1999/xhtml" class="labelBkg" style="display: table-cell; white-space: nowrap; line-height: 1.5; max-width: 200px; text-align: center;"><span class="edgeLabel"></span></div></foreignObject></g></g><g class="edgeLabel"><g class="label" data-id="L_firewall_router_0" transform="translate(0, 0)"><foreignObject width="0" height="0"><div xmlns="http://www.w3.org/1999/xhtml" class="labelBkg" style="display: table-cell; white-space: nowrap; line-height: 1.5; max-width: 200px; text-align: center;"><span class="edgeLabel"></span></div></foreignObject></g></g><g class="edgeLabel" transform="translate(483.953125, 768.34375)"><g class="label" data-id="L_router_crag_0" transform="translate(-19.4609375, -12)"><foreignObject width="38.921875" height="24"><div xmlns="http://www.w3.org/1999/xhtml" class="labelBkg" style="display: table-cell; white-space: nowrap; line-height: 1.5; max-width: 200px; text-align: center;"><span class="edgeLabel"><p>prose</p></span></div></foreignObject></g></g><g class="edgeLabel" transform="translate(790.9921875, 768.34375)"><g class="label" data-id="L_router_sqlg_0" transform="translate(-16.0390625, -12)"><foreignObject width="32.078125" height="24"><div xmlns="http://www.w3.org/1999/xhtml" class="labelBkg" style="display: table-cell; white-space: nowrap; line-height: 1.5; max-width: 200px; text-align: center;"><span class="edgeLabel"><p>data</p></span></div></foreignObject></g></g><g class="edgeLabel"><g class="label" data-id="L_crag_qdrant_0" transform="translate(0, 0)"><foreignObject width="0" height="0"><div xmlns="http://www.w3.org/1999/xhtml" class="labelBkg" style="display: table-cell; white-space: nowrap; line-height: 1.5; max-width: 200px; text-align: center;"><span class="edgeLabel"></span></div></foreignObject></g></g><g class="edgeLabel"><g class="label" data-id="L_sqlg_sqlite_0" transform="translate(0, 0)"><foreignObject width="0" height="0"><div xmlns="http://www.w3.org/1999/xhtml" class="labelBkg" style="display: table-cell; white-space: nowrap; line-height: 1.5; max-width: 200px; text-align: center;"><span class="edgeLabel"></span></div></foreignObject></g></g><g class="edgeLabel"><g class="label" data-id="L_sqlg_ckpt_0" transform="translate(0, 0)"><foreignObject width="0" height="0"><div xmlns="http://www.w3.org/1999/xhtml" class="labelBkg" style="display: table-cell; white-space: nowrap; line-height: 1.5; max-width: 200px; text-align: center;"><span class="edgeLabel"></span></div></foreignObject></g></g><g class="edgeLabel" transform="translate(1263.34765625, 579.171875)"><g class="label" data-id="L_admin_ckpt_0" transform="translate(-50.1328125, -12)"><foreignObject width="100.265625" height="24"><div xmlns="http://www.w3.org/1999/xhtml" class="labelBkg" style="display: table-cell; white-space: nowrap; line-height: 1.5; max-width: 200px; text-align: center;"><span class="edgeLabel"><p>approve/deny</p></span></div></foreignObject></g></g><g class="edgeLabel"><g class="label" data-id="L_api_prom_0" transform="translate(0, 0)"><foreignObject width="0" height="0"><div xmlns="http://www.w3.org/1999/xhtml" class="labelBkg" style="display: table-cell; white-space: nowrap; line-height: 1.5; max-width: 200px; text-align: center;"><span class="edgeLabel"></span></div></foreignObject></g></g><g class="edgeLabel"><g class="label" data-id="L_prom_graf_0" transform="translate(0, 0)"><foreignObject width="0" height="0"><div xmlns="http://www.w3.org/1999/xhtml" class="labelBkg" style="display: table-cell; white-space: nowrap; line-height: 1.5; max-width: 200px; text-align: center;"><span class="edgeLabel"></span></div></foreignObject></g></g><g class="edgeLabel"><g class="label" data-id="L_crag_facade_0" transform="translate(0, 0)"><foreignObject width="0" height="0"><div xmlns="http://www.w3.org/1999/xhtml" class="labelBkg" style="display: table-cell; white-space: nowrap; line-height: 1.5; max-width: 200px; text-align: center;"><span class="edgeLabel"></span></div></foreignObject></g></g><g class="edgeLabel"><g class="label" data-id="L_sqlg_facade_0" transform="translate(0, 0)"><foreignObject width="0" height="0"><div xmlns="http://www.w3.org/1999/xhtml" class="labelBkg" style="display: table-cell; white-space: nowrap; line-height: 1.5; max-width: 200px; text-align: center;"><span class="edgeLabel"></span></div></foreignObject></g></g><g class="edgeLabel" transform="translate(1043.171875, 768.34375)"><g class="label" data-id="L_firewall_facade_0" transform="translate(-68.171875, -12)"><foreignObject width="136.34375" height="24"><div xmlns="http://www.w3.org/1999/xhtml" class="labelBkg" style="display: table-cell; white-space: nowrap; line-height: 1.5; max-width: 200px; text-align: center;"><span class="edgeLabel"><p>optional LLM judge</p></span></div></foreignObject></g></g></g><g class="nodes"><g class="root" transform="translate(1059.95703125, 975.34375)"><g class="clusters"><g class="cluster" id="my-svg-facade" data-look="classic"><rect style="" x="8" y="8" width="335" height="300"/><g class="cluster-label" transform="translate(88.34375, 8)"><foreignObject width="174.3125" height="24"><div xmlns="http://www.w3.org/1999/xhtml" style="display: table-cell; white-space: nowrap; line-height: 1.5;"><span class="nodeLabel"><p>Provider facade (llm.py)</p></span></div></foreignObject></g></g></g><g class="edgePaths"/><g class="edgeLabels"/><g class="nodes"><g class="node default" id="my-svg-flowchart-ollama-8" data-look="classic" transform="translate(175.5, 94)"><rect class="basic label-container" style="" x="-130" y="-51" width="260" height="102"/><g class="label" style="" transform="translate(-100, -36)"><rect/><foreignObject width="200" height="72"><div xmlns="http://www.w3.org/1999/xhtml" style="display: table; white-space: break-spaces; line-height: 1.5; max-width: 200px; text-align: center; width: 200px;"><span class="nodeLabel"><p>Ollama<br />qwen2.5:7b + nomic-embed-text</p></span></div></foreignObject></g></g><g class="node default" id="my-svg-flowchart-azure-9" data-look="classic" transform="translate(175.5, 234)"><rect class="basic label-container" style="" x="-78.296875" y="-39" width="156.59375" height="78"/><g class="label" style="" transform="translate(-48.296875, -24)"><rect/><foreignObject width="96.59375" height="48"><div xmlns="http://www.w3.org/1999/xhtml" style="display: table-cell; white-space: nowrap; line-height: 1.5; max-width: 200px; text-align: center;"><span class="nodeLabel"><p>Azure OpenAI<br />(opt-in)</p></span></div></foreignObject></g></g></g></g><g class="node default" id="my-svg-flowchart-user-0" data-look="classic" transform="translate(902.8828125, 27.5)"><g class="basic label-container outer-path"><path d="M-8.7734375 -19.5 C-4.510728435699644 -19.5, -0.24801937139928754 -19.5, 8.7734375 -19.5 C8.7734375 -19.5, 8.773437499999998 -19.5, 8.773437499999998 -19.5 C9.231479096670428 -19.485311497518662, 9.689520693340858 -19.470622995037324, 10.0228067896239 -19.45993515863156 C10.313067751572206 -19.431934032722285, 10.60332871352051 -19.40393290681301, 11.267042152847864 -19.3399052695533 C11.545410643981855 -19.294900810686645, 11.823779135115844 -19.249896351819995, 12.501030759676757 -19.140403561325776 C12.887989605266599 -19.052082729962347, 13.27494845085644 -18.96376189859892, 13.71970188623539 -18.862249829261074 C14.126551255619534 -18.74149907202378, 14.533400625003678 -18.620748314786486, 14.918047751460602 -18.50658706670804 C15.17790119486897 -18.41095859747486, 15.437754638277337 -18.315330128241683, 16.091144095147794 -18.074876768247425 C16.37151494965467 -17.950764907863128, 16.651885804161548 -17.826653047478832, 17.23417041279238 -17.568892924097174 C17.630995552067844 -17.3618695031158, 18.027820691343308 -17.154846082134423, 18.342429764076783 -16.990714730406097 C18.73723769008703 -16.751379845509778, 19.132045616097283 -16.512044960613455, 19.411368073605697 -16.342718045390892 C19.748407693771107 -16.107613796573506, 20.08544731393652 -15.87250954775612, 20.436592844578712 -15.627565626425154 C20.779427332799823 -15.354164245277698, 21.12226182102094 -15.080762864130243, 21.41389120850187 -14.848196188198123 C21.62318158912662 -14.65812420203475, 21.83247196975137 -14.468052215871376, 22.339247236767985 -14.007812326905688 C22.59063890372249 -13.748229791135461, 22.842030570676993 -13.488647255365233, 23.208858442968648 -13.10986736009568 C23.37928886237211 -12.909670091698786, 23.549719281775573 -12.709472823301889, 24.019151408126582 -12.158051136245305 C24.199047421317513 -11.91700686743341, 24.378943434508443 -11.675962598621515, 24.766796464640635 -11.156274872382312 C24.9444824222096 -10.883301526195998, 25.12216837977856 -10.610328180009683, 25.448721378604247 -10.108655082055241 C25.573223634109734 -9.8875887201848, 25.69772588961522 -9.66652235831436, 26.0621239742735 -9.019496659696287 C26.26747059116142 -8.593090016014783, 26.47281720804934 -8.166683372333278, 26.60448364880834 -7.893275190886684 C26.71940605064887 -7.609414636467084, 26.834328452489405 -7.325554082047484, 27.073571729970325 -6.734618561215508 C27.177899582949827 -6.420399690427252, 27.282227435929332 -6.106180819638997, 27.46746063421488 -5.548287939305138 C27.565525807468774 -5.1743229319731, 27.66359098072267 -4.800357924641062, 27.78453178754556 -4.339158212148133 C27.868442111597506 -3.9082964325946685, 27.95235243564945 -3.477434653041204, 28.023482276581777 -3.1121979531509023 C28.071411397349518 -2.7404691571517352, 28.11934051811726 -2.3687403611525677, 28.183330202509367 -1.872449005199798 C28.201929921566407 -1.5827433674634088, 28.220529640623447 -1.2930377297270197, 28.263418715913414 -0.6250057626472757 C28.263418715913414 -0.27677529243102666, 28.263418715913414 0.07145517778522237, 28.263418715913414 0.625005762647271 C28.232631337845977 1.1045440271719036, 28.20184395977854 1.584082291696536, 28.183330202509367 1.8724490051997846 C28.14035191624193 2.205780106467449, 28.097373629974495 2.5391112077351132, 28.023482276581777 3.1121979531508885 C27.94314235201312 3.5247264859618817, 27.86280242744446 3.937255018772875, 27.78453178754556 4.339158212148129 C27.681641773989888 4.731522426649857, 27.57875176043422 5.123886641151586, 27.467460634214884 5.548287939305125 C27.370015280074533 5.841777820167132, 27.272569925934178 6.1352677010291385, 27.07357172997033 6.734618561215495 C26.92467274176594 7.102401940846441, 26.775773753561545 7.470185320477387, 26.604483648808344 7.893275190886679 C26.437802611185838 8.23939193191269, 26.27112157356333 8.585508672938703, 26.062123974273504 9.019496659696284 C25.844441879045895 9.406013262475271, 25.626759783818287 9.79252986525426, 25.44872137860425 10.108655082055236 C25.21927064708972 10.461153021810041, 24.98981991557519 10.813650961564845, 24.76679646464064 11.156274872382301 C24.603813451502795 11.37465726192907, 24.440830438364944 11.593039651475836, 24.019151408126582 12.158051136245302 C23.85136008136708 12.355148376253975, 23.68356875460758 12.55224561626265, 23.20885844296866 13.10986736009567 C22.987145490754084 13.338804186229126, 22.765432538539507 13.567741012362582, 22.33924723676799 14.007812326905684 C22.03107892171625 14.287682636948865, 21.72291060666451 14.567552946992048, 21.413891208501887 14.848196188198111 C21.201060874955314 15.017922715548469, 20.988230541408743 15.187649242898827, 20.436592844578715 15.627565626425152 C20.055148461675735 15.89364471547707, 19.673704078772754 16.159723804528987, 19.411368073605708 16.34271804539089 C19.043211209271792 16.56589690007999, 18.675054344937877 16.789075754769094, 18.342429764076787 16.990714730406093 C18.033563903306923 17.151849852131704, 17.724698042537057 17.31298497385732, 17.234170412792388 17.56889292409717 C16.79251860382737 17.764399078790554, 16.350866794862352 17.95990523348394, 16.091144095147804 18.07487676824742 C15.651797345132383 18.23656043352993, 15.212450595116962 18.398244098812444, 14.918047751460616 18.506587066708033 C14.669849776381557 18.580250922893743, 14.421651801302497 18.65391477907945, 13.719701886235413 18.86224982926107 C13.260357449383507 18.967092199469935, 12.8010130125316 19.071934569678803, 12.501030759676766 19.140403561325773 C12.111047031380457 19.203453106147737, 11.721063303084145 19.266502650969706, 11.267042152847878 19.3399052695533 C10.776048797815124 19.387270808007404, 10.285055442782369 19.434636346461513, 10.0228067896239 19.45993515863156 C9.698917053109051 19.47032167206846, 9.3750273165942 19.480708185505367, 8.773437500000004 19.5 C8.773437500000002 19.5, 8.773437500000002 19.5, 8.7734375 19.5 C4.924210685023367 19.5, 1.0749838700467347 19.5, -8.773437499999996 19.5 C-9.096529946688756 19.48963905409599, -9.419622393377514 19.479278108191977, -10.022806789623893 19.45993515863156 C-10.47867977289076 19.41595764020328, -10.934552756157629 19.371980121775003, -11.267042152847871 19.3399052695533 C-11.594536939412903 19.286958452221466, -11.922031725977934 19.234011634889633, -12.501030759676759 19.140403561325773 C-12.825018008164868 19.066455586072742, -13.149005256652977 18.99250761081971, -13.719701886235388 18.862249829261074 C-14.084944142728027 18.753847844729787, -14.450186399220664 18.6454458601985, -14.918047751460593 18.506587066708043 C-15.343251639502272 18.350108105367053, -15.768455527543951 18.19362914402606, -16.091144095147797 18.074876768247425 C-16.495389486967476 17.895929324802342, -16.899634878787154 17.71698188135726, -17.23417041279238 17.568892924097174 C-17.63554766909296 17.359494666579565, -18.036924925393546 17.150096409061952, -18.34242976407678 16.990714730406097 C-18.730181164106575 16.755657553027877, -19.11793256413637 16.520600375649657, -19.411368073605686 16.3427180453909 C-19.809606218468698 16.064924354985905, -20.20784436333171 15.787130664580909, -20.436592844578712 15.627565626425156 C-20.762239788190374 15.367870854723966, -21.087886731802037 15.108176083022776, -21.41389120850187 14.848196188198125 C-21.687079980983523 14.600093373209116, -21.960268753465176 14.351990558220105, -22.339247236767974 14.007812326905697 C-22.607515408952896 13.730803413898217, -22.875783581137817 13.453794500890739, -23.208858442968655 13.109867360095677 C-23.497730081612662 12.77054229608254, -23.786601720256666 12.431217232069404, -24.01915140812658 12.158051136245307 C-24.317772285358803 11.757926365675699, -24.61639316259103 11.357801595106093, -24.766796464640635 11.156274872382316 C-25.00971898365823 10.783080649341334, -25.25264150267583 10.409886426300353, -25.448721378604244 10.108655082055249 C-25.60439325315291 9.832243905307461, -25.760065127701576 9.555832728559674, -26.0621239742735 9.019496659696289 C-26.20356597352106 8.725789321884765, -26.34500797276862 8.432081984073239, -26.60448364880834 7.893275190886686 C-26.78514405398516 7.44704049726862, -26.965804459161983 7.000805803650555, -27.073571729970325 6.73461856121551 C-27.17938749538149 6.4159183352497395, -27.285203260792656 6.097218109283968, -27.46746063421488 5.5482879393051325 C-27.58170496486547 5.112624792728324, -27.69594929551606 4.676961646151517, -27.784531787545557 4.339158212148136 C-27.840715673637245 4.05066583153585, -27.896899559728933 3.7621734509235654, -28.023482276581777 3.112197953150904 C-28.060022019909198 2.828802919491887, -28.09656176323662 2.54540788583287, -28.183330202509364 1.872449005199809 C-28.213836044175896 1.397295897371413, -28.244341885842424 0.9221427895430169, -28.263418715913414 0.6250057626472781 C-28.263418715913414 0.36931015805145145, -28.263418715913414 0.11361455345562477, -28.263418715913414 -0.6250057626472687 C-28.24081290207724 -0.9771095602301872, -28.218207088241066 -1.3292133578131058, -28.183330202509367 -1.8724490051997822 C-28.151103358311822 -2.1223940448857372, -28.11887651411428 -2.3723390845716925, -28.023482276581777 -3.112197953150895 C-27.95962121769273 -3.440110993506577, -27.895760158803682 -3.768024033862258, -27.78453178754556 -4.339158212148126 C-27.693552943610307 -4.686099974553638, -27.602574099675053 -5.0330417369591505, -27.467460634214884 -5.548287939305123 C-27.380458784367192 -5.810323649184079, -27.293456934519497 -6.072359359063037, -27.073571729970332 -6.734618561215485 C-26.96626180353056 -6.9996761542180135, -26.858951877090785 -7.264733747220541, -26.604483648808344 -7.893275190886676 C-26.494104796532557 -8.122479239366447, -26.383725944256767 -8.35168328784622, -26.062123974273504 -9.019496659696282 C-25.883804766548455 -9.3361204697899, -25.705485558823405 -9.65274427988352, -25.448721378604247 -10.108655082055243 C-25.21304289943386 -10.47072051459385, -24.977364420263466 -10.832785947132457, -24.76679646464064 -11.156274872382308 C-24.60630694724526 -11.371316204796308, -24.445817429849875 -11.586357537210308, -24.019151408126586 -12.158051136245302 C-23.81933725604589 -12.39276420902663, -23.619523103965196 -12.627477281807959, -23.208858442968662 -13.10986736009567 C-22.962356826538866 -13.364400517218522, -22.71585521010907 -13.618933674341374, -22.339247236767996 -14.007812326905677 C-22.017344633309676 -14.300155754290357, -21.695442029851357 -14.592499181675034, -21.413891208501887 -14.848196188198107 C-21.173373088478463 -15.040002988460813, -20.93285496845504 -15.23180978872352, -20.43659284457872 -15.627565626425149 C-20.143926799799026 -15.831716789954578, -19.85126075501933 -16.035867953484008, -19.41136807360571 -16.342718045390885 C-19.118950056350407 -16.519983565890065, -18.8265320390951 -16.697249086389245, -18.34242976407679 -16.99071473040609 C-17.95038050940779 -17.195246575447374, -17.558331254738793 -17.39977842048866, -17.234170412792388 -17.56889292409717 C-16.79612129832099 -17.762804272808363, -16.358072183849593 -17.956715621519557, -16.091144095147804 -18.07487676824742 C-15.74426972541736 -18.20252974277975, -15.397395355686914 -18.330182717312077, -14.918047751460618 -18.506587066708033 C-14.451739078412707 -18.644985033164478, -13.985430405364797 -18.783382999620926, -13.719701886235413 -18.862249829261067 C-13.376864580558985 -18.940500207059213, -13.034027274882556 -19.01875058485736, -12.501030759676768 -19.140403561325773 C-12.191044821636554 -19.19051968381126, -11.88105888359634 -19.24063580629675, -11.26704215284788 -19.3399052695533 C-10.919290045009316 -19.373452497163385, -10.571537937170751 -19.406999724773474, -10.022806789623903 -19.45993515863156 C-9.555271080806376 -19.474928118810286, -9.08773537198885 -19.489921078989013, -8.773437500000005 -19.5 C-8.773437500000004 -19.5, -8.773437500000004 -19.5, -8.7734375 -19.5" stroke="none" stroke-width="0" fill="#ECECFF" style=""/><path d="M-8.7734375 -19.5 C-3.6833618851615206 -19.5, 1.4067137296769587 -19.5, 8.7734375 -19.5 M-8.7734375 -19.5 C-4.414624839192364 -19.5, -0.05581217838472874 -19.5, 8.7734375 -19.5 M8.7734375 -19.5 C8.7734375 -19.5, 8.773437499999998 -19.5, 8.773437499999998 -19.5 M8.7734375 -19.5 C8.7734375 -19.5, 8.773437499999998 -19.5, 8.773437499999998 -19.5 M8.773437499999998 -19.5 C9.134112900977751 -19.488433841902722, 9.494788301955504 -19.476867683805448, 10.0228067896239 -19.45993515863156 M8.773437499999998 -19.5 C9.21139031391962 -19.485955705681036, 9.649343127839243 -19.471911411362075, 10.0228067896239 -19.45993515863156 M10.0228067896239 -19.45993515863156 C10.27874983686463 -19.435244640680796, 10.534692884105361 -19.41055412273003, 11.267042152847864 -19.3399052695533 M10.0228067896239 -19.45993515863156 C10.476421565946254 -19.416175486711328, 10.930036342268608 -19.372415814791093, 11.267042152847864 -19.3399052695533 M11.267042152847864 -19.3399052695533 C11.69438000812513 -19.270816599166636, 12.121717863402395 -19.20172792877997, 12.501030759676757 -19.140403561325776 M11.267042152847864 -19.3399052695533 C11.572086355946144 -19.290588088449496, 11.877130559044424 -19.241270907345694, 12.501030759676757 -19.140403561325776 M12.501030759676757 -19.140403561325776 C12.95576625612672 -19.036613151687508, 13.410501752576684 -18.932822742049236, 13.71970188623539 -18.862249829261074 M12.501030759676757 -19.140403561325776 C12.98428615443287 -19.030103671008856, 13.467541549188981 -18.91980378069194, 13.71970188623539 -18.862249829261074 M13.71970188623539 -18.862249829261074 C14.056002043284789 -18.76243770792436, 14.392302200334187 -18.662625586587644, 14.918047751460602 -18.50658706670804 M13.71970188623539 -18.862249829261074 C14.14546546228369 -18.735885434768555, 14.571229038331992 -18.609521040276036, 14.918047751460602 -18.50658706670804 M14.918047751460602 -18.50658706670804 C15.338791944131046 -18.351749314488636, 15.75953613680149 -18.19691156226923, 16.091144095147794 -18.074876768247425 M14.918047751460602 -18.50658706670804 C15.215946869784949 -18.396957437415416, 15.513845988109296 -18.287327808122793, 16.091144095147794 -18.074876768247425 M16.091144095147794 -18.074876768247425 C16.336835283880852 -17.966116567165464, 16.582526472613914 -17.857356366083504, 17.23417041279238 -17.568892924097174 M16.091144095147794 -18.074876768247425 C16.326545115759913 -17.970671719345614, 16.56194613637203 -17.866466670443803, 17.23417041279238 -17.568892924097174 M17.23417041279238 -17.568892924097174 C17.502186810327803 -17.42906894117564, 17.77020320786323 -17.289244958254105, 18.342429764076783 -16.990714730406097 M17.23417041279238 -17.568892924097174 C17.58541034191221 -17.38565127805527, 17.936650271032036 -17.20240963201337, 18.342429764076783 -16.990714730406097 M18.342429764076783 -16.990714730406097 C18.618035443261224 -16.82364094804574, 18.893641122445665 -16.656567165685384, 19.411368073605697 -16.342718045390892 M18.342429764076783 -16.990714730406097 C18.597169953644983 -16.836289730470334, 18.851910143213182 -16.68186473053457, 19.411368073605697 -16.342718045390892 M19.411368073605697 -16.342718045390892 C19.749948657654006 -16.10653888687605, 20.08852924170231 -15.870359728361207, 20.436592844578712 -15.627565626425154 M19.411368073605697 -16.342718045390892 C19.691871920733018 -16.14705070445071, 19.97237576786034 -15.951383363510525, 20.436592844578712 -15.627565626425154 M20.436592844578712 -15.627565626425154 C20.68111894937921 -15.432562564959687, 20.925645054179707 -15.23755950349422, 21.41389120850187 -14.848196188198123 M20.436592844578712 -15.627565626425154 C20.704710882640807 -15.413748625991273, 20.972828920702902 -15.199931625557392, 21.41389120850187 -14.848196188198123 M21.41389120850187 -14.848196188198123 C21.74443595718353 -14.54800419318024, 22.074980705865187 -14.247812198162357, 22.339247236767985 -14.007812326905688 M21.41389120850187 -14.848196188198123 C21.62974737800048 -14.652161326300766, 21.84560354749909 -14.456126464403406, 22.339247236767985 -14.007812326905688 M22.339247236767985 -14.007812326905688 C22.557578581458316 -13.782367288176157, 22.775909926148643 -13.556922249446627, 23.208858442968648 -13.10986736009568 M22.339247236767985 -14.007812326905688 C22.614014950992203 -13.724092103120306, 22.88878266521642 -13.440371879334924, 23.208858442968648 -13.10986736009568 M23.208858442968648 -13.10986736009568 C23.53043627372374 -12.73212374179381, 23.852014104478837 -12.354380123491941, 24.019151408126582 -12.158051136245305 M23.208858442968648 -13.10986736009568 C23.46101664916054 -12.813667982894287, 23.71317485535243 -12.517468605692894, 24.019151408126582 -12.158051136245305 M24.019151408126582 -12.158051136245305 C24.18792639233729 -11.93190803312033, 24.356701376547992 -11.705764929995354, 24.766796464640635 -11.156274872382312 M24.019151408126582 -12.158051136245305 C24.20660002832313 -11.906887062102538, 24.394048648519675 -11.655722987959768, 24.766796464640635 -11.156274872382312 M24.766796464640635 -11.156274872382312 C24.926321395476105 -10.911201740177153, 25.085846326311575 -10.666128607971997, 25.448721378604247 -10.108655082055241 M24.766796464640635 -11.156274872382312 C24.914309644165694 -10.929655015796799, 25.061822823690754 -10.703035159211284, 25.448721378604247 -10.108655082055241 M25.448721378604247 -10.108655082055241 C25.583102900840846 -9.870047081719477, 25.717484423077444 -9.631439081383713, 26.0621239742735 -9.019496659696287 M25.448721378604247 -10.108655082055241 C25.618803467508556 -9.806657110526574, 25.78888555641287 -9.504659138997908, 26.0621239742735 -9.019496659696287 M26.0621239742735 -9.019496659696287 C26.225653901929043 -8.679923265939628, 26.389183829584585 -8.340349872182967, 26.60448364880834 -7.893275190886684 M26.0621239742735 -9.019496659696287 C26.258174496951483 -8.612393554546264, 26.45422501962947 -8.20529044939624, 26.60448364880834 -7.893275190886684 M26.60448364880834 -7.893275190886684 C26.748057331609264 -7.538645418560083, 26.891631014410187 -7.184015646233483, 27.073571729970325 -6.734618561215508 M26.60448364880834 -7.893275190886684 C26.734235347584384 -7.572785986331416, 26.863987046360428 -7.252296781776149, 27.073571729970325 -6.734618561215508 M27.073571729970325 -6.734618561215508 C27.192556311063967 -6.3762559605799565, 27.311540892157613 -6.017893359944406, 27.46746063421488 -5.548287939305138 M27.073571729970325 -6.734618561215508 C27.163977363760107 -6.462331196422303, 27.25438299754989 -6.190043831629098, 27.46746063421488 -5.548287939305138 M27.46746063421488 -5.548287939305138 C27.543257413750446 -5.259241968403974, 27.61905419328601 -4.9701959975028105, 27.78453178754556 -4.339158212148133 M27.46746063421488 -5.548287939305138 C27.532020939285246 -5.302091515458616, 27.596581244355615 -5.055895091612094, 27.78453178754556 -4.339158212148133 M27.78453178754556 -4.339158212148133 C27.841448670613424 -4.046902046982154, 27.898365553681288 -3.754645881816175, 28.023482276581777 -3.1121979531509023 M27.78453178754556 -4.339158212148133 C27.856263851770922 -3.970829222928048, 27.92799591599628 -3.602500233707963, 28.023482276581777 -3.1121979531509023 M28.023482276581777 -3.1121979531509023 C28.07075301771145 -2.745575419612826, 28.118023758841122 -2.37895288607475, 28.183330202509367 -1.872449005199798 M28.023482276581777 -3.1121979531509023 C28.06396568333592 -2.7982166447186647, 28.10444909009006 -2.484235336286427, 28.183330202509367 -1.872449005199798 M28.183330202509367 -1.872449005199798 C28.212273600360007 -1.421632220985819, 28.241216998210646 -0.97081543677184, 28.263418715913414 -0.6250057626472757 M28.183330202509367 -1.872449005199798 C28.205983588105465 -1.519604239056843, 28.228636973701562 -1.1667594729138877, 28.263418715913414 -0.6250057626472757 M28.263418715913414 -0.6250057626472757 C28.263418715913414 -0.12544218053338313, 28.263418715913414 0.37412140158050944, 28.263418715913414 0.625005762647271 M28.263418715913414 -0.6250057626472757 C28.263418715913414 -0.16943054661588758, 28.263418715913414 0.28614466941550054, 28.263418715913414 0.625005762647271 M28.263418715913414 0.625005762647271 C28.236599938835177 1.042729863368069, 28.209781161756936 1.4604539640888672, 28.183330202509367 1.8724490051997846 M28.263418715913414 0.625005762647271 C28.23621388727923 1.048742927967123, 28.209009058645048 1.4724800932869748, 28.183330202509367 1.8724490051997846 M28.183330202509367 1.8724490051997846 C28.146857705088564 2.15532249288628, 28.11038520766776 2.4381959805727753, 28.023482276581777 3.1121979531508885 M28.183330202509367 1.8724490051997846 C28.128781019427496 2.2955216972281836, 28.074231836345625 2.7185943892565825, 28.023482276581777 3.1121979531508885 M28.023482276581777 3.1121979531508885 C27.959665303267805 3.4398846233960523, 27.895848329953832 3.7675712936412165, 27.78453178754556 4.339158212148129 M28.023482276581777 3.1121979531508885 C27.955722783898093 3.4601286271077623, 27.887963291214408 3.8080593010646364, 27.78453178754556 4.339158212148129 M27.78453178754556 4.339158212148129 C27.66607793279434 4.790874098539924, 27.547624078043125 5.242589984931721, 27.467460634214884 5.548287939305125 M27.78453178754556 4.339158212148129 C27.665156964630594 4.794386149298428, 27.545782141715623 5.249614086448728, 27.467460634214884 5.548287939305125 M27.467460634214884 5.548287939305125 C27.375177615291165 5.826229689001055, 27.28289459636744 6.104171438696984, 27.07357172997033 6.734618561215495 M27.467460634214884 5.548287939305125 C27.356102111799405 5.883682066249494, 27.244743589383923 6.219076193193863, 27.07357172997033 6.734618561215495 M27.07357172997033 6.734618561215495 C26.96376477207126 7.005843870199302, 26.85395781417219 7.277069179183109, 26.604483648808344 7.893275190886679 M27.07357172997033 6.734618561215495 C26.935342199563088 7.076048173807544, 26.797112669155847 7.417477786399592, 26.604483648808344 7.893275190886679 M26.604483648808344 7.893275190886679 C26.450712638779457 8.212583983384205, 26.296941628750567 8.53189277588173, 26.062123974273504 9.019496659696284 M26.604483648808344 7.893275190886679 C26.429593878607427 8.256437540750504, 26.254704108406507 8.61959989061433, 26.062123974273504 9.019496659696284 M26.062123974273504 9.019496659696284 C25.874047012045466 9.353446350989744, 25.685970049817428 9.687396042283204, 25.44872137860425 10.108655082055236 M26.062123974273504 9.019496659696284 C25.90567798208463 9.297282360702171, 25.74923198989576 9.575068061708059, 25.44872137860425 10.108655082055236 M25.44872137860425 10.108655082055236 C25.300395291901353 10.33652378236205, 25.152069205198455 10.564392482668863, 24.76679646464064 11.156274872382301 M25.44872137860425 10.108655082055236 C25.248655777859884 10.41600956993461, 25.048590177115518 10.723364057813985, 24.76679646464064 11.156274872382301 M24.76679646464064 11.156274872382301 C24.58506548524265 11.399777828742794, 24.403334505844665 11.643280785103286, 24.019151408126582 12.158051136245302 M24.76679646464064 11.156274872382301 C24.48777278992511 11.53014117692142, 24.208749115209574 11.904007481460539, 24.019151408126582 12.158051136245302 M24.019151408126582 12.158051136245302 C23.72889538784108 12.499002373708082, 23.438639367555584 12.839953611170863, 23.20885844296866 13.10986736009567 M24.019151408126582 12.158051136245302 C23.854370609883834 12.351612038154272, 23.68958981164109 12.545172940063242, 23.20885844296866 13.10986736009567 M23.20885844296866 13.10986736009567 C23.020757708550985 13.304096811739422, 22.83265697413331 13.498326263383172, 22.33924723676799 14.007812326905684 M23.20885844296866 13.10986736009567 C22.86586982002149 13.464031273178266, 22.522881197074327 13.818195186260862, 22.33924723676799 14.007812326905684 M22.33924723676799 14.007812326905684 C22.147358926567524 14.182080213143273, 21.955470616367062 14.356348099380863, 21.413891208501887 14.848196188198111 M22.33924723676799 14.007812326905684 C22.08597272653963 14.237829535818758, 21.83269821631127 14.467846744731833, 21.413891208501887 14.848196188198111 M21.413891208501887 14.848196188198111 C21.199521675252797 15.019150186351403, 20.985152142003706 15.190104184504696, 20.436592844578715 15.627565626425152 M21.413891208501887 14.848196188198111 C21.109820091556852 15.090684812289526, 20.80574897461182 15.333173436380939, 20.436592844578715 15.627565626425152 M20.436592844578715 15.627565626425152 C20.163909817898052 15.817777501579611, 19.891226791217385 16.00798937673407, 19.411368073605708 16.34271804539089 M20.436592844578715 15.627565626425152 C20.041997851778902 15.902818011660376, 19.647402858979085 16.1780703968956, 19.411368073605708 16.34271804539089 M19.411368073605708 16.34271804539089 C19.12132816054912 16.518541945149515, 18.831288247492527 16.69436584490814, 18.342429764076787 16.990714730406093 M19.411368073605708 16.34271804539089 C18.99014595768858 16.59806536743577, 18.56892384177145 16.853412689480646, 18.342429764076787 16.990714730406093 M18.342429764076787 16.990714730406093 C18.070499414988898 17.132580619345543, 17.79856906590101 17.274446508284992, 17.234170412792388 17.56889292409717 M18.342429764076787 16.990714730406093 C17.978949379865483 17.180342214028833, 17.615468995654176 17.369969697651573, 17.234170412792388 17.56889292409717 M17.234170412792388 17.56889292409717 C16.83441359181467 17.74585341037924, 16.434656770836956 17.92281389666131, 16.091144095147804 18.07487676824742 M17.234170412792388 17.56889292409717 C16.858352973123036 17.73525615641054, 16.48253553345369 17.901619388723912, 16.091144095147804 18.07487676824742 M16.091144095147804 18.07487676824742 C15.802603886279845 18.18106223234728, 15.514063677411887 18.287247696447142, 14.918047751460616 18.506587066708033 M16.091144095147804 18.07487676824742 C15.744323748741957 18.20250986169691, 15.39750340233611 18.3301429551464, 14.918047751460616 18.506587066708033 M14.918047751460616 18.506587066708033 C14.563260079438265 18.611886185445773, 14.208472407415915 18.717185304183516, 13.719701886235413 18.86224982926107 M14.918047751460616 18.506587066708033 C14.636017394673278 18.590292196194962, 14.35398703788594 18.673997325681892, 13.719701886235413 18.86224982926107 M13.719701886235413 18.86224982926107 C13.441998322039352 18.925633855603706, 13.16429475784329 18.989017881946342, 12.501030759676766 19.140403561325773 M13.719701886235413 18.86224982926107 C13.265746264656668 18.965862237549143, 12.811790643077922 19.069474645837214, 12.501030759676766 19.140403561325773 M12.501030759676766 19.140403561325773 C12.211435889804992 19.187223014044882, 11.92184101993322 19.234042466763995, 11.267042152847878 19.3399052695533 M12.501030759676766 19.140403561325773 C12.221814828669848 19.185545027699085, 11.942598897662931 19.2306864940724, 11.267042152847878 19.3399052695533 M11.267042152847878 19.3399052695533 C10.942512595365685 19.37121224565971, 10.61798303788349 19.40251922176612, 10.0228067896239 19.45993515863156 M11.267042152847878 19.3399052695533 C10.794813356423639 19.385460613606124, 10.322584559999399 19.431015957658953, 10.0228067896239 19.45993515863156 M10.0228067896239 19.45993515863156 C9.596627021765936 19.47360191427817, 9.170447253907971 19.487268669924777, 8.773437500000004 19.5 M10.0228067896239 19.45993515863156 C9.602908338903609 19.473400484663404, 9.183009888183317 19.486865810695253, 8.773437500000004 19.5 M8.773437500000004 19.5 C8.773437500000002 19.5, 8.773437500000002 19.5, 8.7734375 19.5 M8.773437500000004 19.5 C8.773437500000004 19.5, 8.773437500000002 19.5, 8.7734375 19.5 M8.7734375 19.5 C4.025348492836414 19.5, -0.7227405143271728 19.5, -8.773437499999996 19.5 M8.7734375 19.5 C3.050640020993625 19.5, -2.67215745801275 19.5, -8.773437499999996 19.5 M-8.773437499999996 19.5 C-9.162913906830532 19.487510249702783, -9.552390313661068 19.475020499405563, -10.022806789623893 19.45993515863156 M-8.773437499999996 19.5 C-9.243248015183225 19.484934091208768, -9.713058530366453 19.469868182417535, -10.022806789623893 19.45993515863156 M-10.022806789623893 19.45993515863156 C-10.399797777445963 19.42356729143436, -10.776788765268035 19.387199424237163, -11.267042152847871 19.3399052695533 M-10.022806789623893 19.45993515863156 C-10.40228622312983 19.423327234072033, -10.781765656635768 19.386719309512504, -11.267042152847871 19.3399052695533 M-11.267042152847871 19.3399052695533 C-11.68426073269386 19.27245260514221, -12.101479312539848 19.20499994073112, -12.501030759676759 19.140403561325773 M-11.267042152847871 19.3399052695533 C-11.533440033065888 19.296836126226065, -11.799837913283904 19.25376698289883, -12.501030759676759 19.140403561325773 M-12.501030759676759 19.140403561325773 C-12.939242423713344 19.040384608607773, -13.377454087749928 18.940365655889774, -13.719701886235388 18.862249829261074 M-12.501030759676759 19.140403561325773 C-12.85580873318649 19.059427804014817, -13.210586706696223 18.978452046703858, -13.719701886235388 18.862249829261074 M-13.719701886235388 18.862249829261074 C-14.17903866258619 18.725921085148098, -14.638375438936993 18.58959234103512, -14.918047751460593 18.506587066708043 M-13.719701886235388 18.862249829261074 C-14.185648636946711 18.72395927945436, -14.651595387658032 18.585668729647644, -14.918047751460593 18.506587066708043 M-14.918047751460593 18.506587066708043 C-15.200358951045374 18.402693935604724, -15.482670150630156 18.2988008045014, -16.091144095147797 18.074876768247425 M-14.918047751460593 18.506587066708043 C-15.25305246969646 18.383302233647576, -15.588057187932328 18.26001740058711, -16.091144095147797 18.074876768247425 M-16.091144095147797 18.074876768247425 C-16.42919819080263 17.925230248119483, -16.767252286457463 17.77558372799154, -17.23417041279238 17.568892924097174 M-16.091144095147797 18.074876768247425 C-16.409202488148857 17.93408175253286, -16.727260881149917 17.7932867368183, -17.23417041279238 17.568892924097174 M-17.23417041279238 17.568892924097174 C-17.6521483561167 17.350834098792525, -18.070126299441025 17.132775273487876, -18.34242976407678 16.990714730406097 M-17.23417041279238 17.568892924097174 C-17.582850584677086 17.38698670176523, -17.931530756561795 17.20508047943329, -18.34242976407678 16.990714730406097 M-18.34242976407678 16.990714730406097 C-18.710098242495846 16.767831938128648, -19.077766720914916 16.544949145851202, -19.411368073605686 16.3427180453909 M-18.34242976407678 16.990714730406097 C-18.722364388015592 16.76039612863071, -19.1022990119544 16.53007752685532, -19.411368073605686 16.3427180453909 M-19.411368073605686 16.3427180453909 C-19.638402789149406 16.184348456002034, -19.865437504693126 16.02597886661317, -20.436592844578712 15.627565626425156 M-19.411368073605686 16.3427180453909 C-19.649104015923424 16.17688374345312, -19.88683995824116 16.011049441515343, -20.436592844578712 15.627565626425156 M-20.436592844578712 15.627565626425156 C-20.659188068810394 15.450051858608077, -20.881783293042076 15.272538090790999, -21.41389120850187 14.848196188198125 M-20.436592844578712 15.627565626425156 C-20.64646564087594 15.460197656327779, -20.856338437173168 15.292829686230402, -21.41389120850187 14.848196188198125 M-21.41389120850187 14.848196188198125 C-21.60225333305883 14.677130690464207, -21.79061545761579 14.506065192730286, -22.339247236767974 14.007812326905697 M-21.41389120850187 14.848196188198125 C-21.673684904891036 14.61225842690202, -21.933478601280203 14.376320665605913, -22.339247236767974 14.007812326905697 M-22.339247236767974 14.007812326905697 C-22.67337714874976 13.662795760208555, -23.007507060731548 13.317779193511411, -23.208858442968655 13.109867360095677 M-22.339247236767974 14.007812326905697 C-22.614462780266162 13.723629682627477, -22.88967832376435 13.439447038349257, -23.208858442968655 13.109867360095677 M-23.208858442968655 13.109867360095677 C-23.411038183285175 12.872375532766766, -23.61321792360169 12.634883705437854, -24.01915140812658 12.158051136245307 M-23.208858442968655 13.109867360095677 C-23.50649251962199 12.760249437799937, -23.804126596275324 12.410631515504194, -24.01915140812658 12.158051136245307 M-24.01915140812658 12.158051136245307 C-24.186823058443956 11.933386400021604, -24.354494708761337 11.708721663797903, -24.766796464640635 11.156274872382316 M-24.01915140812658 12.158051136245307 C-24.22585856972415 11.881082371114385, -24.432565731321716 11.604113605983462, -24.766796464640635 11.156274872382316 M-24.766796464640635 11.156274872382316 C-24.969101089383624 10.845480642378925, -25.171405714126617 10.534686412375533, -25.448721378604244 10.108655082055249 M-24.766796464640635 11.156274872382316 C-24.918889371951998 10.922619324087934, -25.070982279263365 10.688963775793553, -25.448721378604244 10.108655082055249 M-25.448721378604244 10.108655082055249 C-25.680654373460424 9.696834563925664, -25.912587368316604 9.28501404579608, -26.0621239742735 9.019496659696289 M-25.448721378604244 10.108655082055249 C-25.596123125565512 9.84692835428011, -25.743524872526784 9.585201626504972, -26.0621239742735 9.019496659696289 M-26.0621239742735 9.019496659696289 C-26.232111018035194 8.666514926185057, -26.402098061796885 8.313533192673825, -26.60448364880834 7.893275190886686 M-26.0621239742735 9.019496659696289 C-26.266694543395612 8.594701495805245, -26.471265112517724 8.169906331914198, -26.60448364880834 7.893275190886686 M-26.60448364880834 7.893275190886686 C-26.768782103855457 7.487454830425776, -26.933080558902574 7.081634469964866, -27.073571729970325 6.73461856121551 M-26.60448364880834 7.893275190886686 C-26.770196102818957 7.483962225648116, -26.935908556829578 7.074649260409547, -27.073571729970325 6.73461856121551 M-27.073571729970325 6.73461856121551 C-27.155383805343504 6.488213625175516, -27.237195880716683 6.241808689135522, -27.46746063421488 5.5482879393051325 M-27.073571729970325 6.73461856121551 C-27.19412827226835 6.371521463890363, -27.314684814566377 6.008424366565216, -27.46746063421488 5.5482879393051325 M-27.46746063421488 5.5482879393051325 C-27.587839943074297 5.089229461901691, -27.708219251933713 4.63017098449825, -27.784531787545557 4.339158212148136 M-27.46746063421488 5.5482879393051325 C-27.539623208920496 5.273100766494904, -27.61178578362611 4.997913593684675, -27.784531787545557 4.339158212148136 M-27.784531787545557 4.339158212148136 C-27.8767292970478 3.8657434868046625, -27.96892680655004 3.3923287614611897, -28.023482276581777 3.112197953150904 M-27.784531787545557 4.339158212148136 C-27.854171635535025 3.9815723111093058, -27.923811483524492 3.6239864100704757, -28.023482276581777 3.112197953150904 M-28.023482276581777 3.112197953150904 C-28.055516924184126 2.8637435523037795, -28.087551571786474 2.6152891514566545, -28.183330202509364 1.872449005199809 M-28.023482276581777 3.112197953150904 C-28.068701372165936 2.7614875773205894, -28.113920467750095 2.410777201490275, -28.183330202509364 1.872449005199809 M-28.183330202509364 1.872449005199809 C-28.209925570813304 1.458204676471054, -28.23652093911724 1.0439603477422987, -28.263418715913414 0.6250057626472781 M-28.183330202509364 1.872449005199809 C-28.20849647521771 1.4804639939176045, -28.233662747926058 1.0884789826354, -28.263418715913414 0.6250057626472781 M-28.263418715913414 0.6250057626472781 C-28.263418715913414 0.2579692347591464, -28.263418715913414 -0.10906729312898533, -28.263418715913414 -0.6250057626472687 M-28.263418715913414 0.6250057626472781 C-28.263418715913414 0.19567457263620508, -28.263418715913414 -0.23365661737486798, -28.263418715913414 -0.6250057626472687 M-28.263418715913414 -0.6250057626472687 C-28.231812300117777 -1.1173012009039365, -28.200205884322145 -1.6095966391606042, -28.183330202509367 -1.8724490051997822 M-28.263418715913414 -0.6250057626472687 C-28.24295693391441 -0.9437145337348887, -28.22249515191541 -1.2624233048225086, -28.183330202509367 -1.8724490051997822 M-28.183330202509367 -1.8724490051997822 C-28.121375961743688 -2.352953862329778, -28.059421720978005 -2.8334587194597742, -28.023482276581777 -3.112197953150895 M-28.183330202509367 -1.8724490051997822 C-28.13585644839751 -2.2406460673382447, -28.088382694285652 -2.608843129476707, -28.023482276581777 -3.112197953150895 M-28.023482276581777 -3.112197953150895 C-27.94948468681048 -3.4921599372303787, -27.87548709703918 -3.8721219213098625, -27.78453178754556 -4.339158212148126 M-28.023482276581777 -3.112197953150895 C-27.97342353789206 -3.3692389964044316, -27.92336479920234 -3.626280039657968, -27.78453178754556 -4.339158212148126 M-27.78453178754556 -4.339158212148126 C-27.67703789934757 -4.749078995992901, -27.569544011149585 -5.158999779837677, -27.467460634214884 -5.548287939305123 M-27.78453178754556 -4.339158212148126 C-27.697135962851856 -4.672436369295245, -27.609740138158152 -5.0057145264423655, -27.467460634214884 -5.548287939305123 M-27.467460634214884 -5.548287939305123 C-27.348851058179473 -5.905521084454223, -27.230241482144063 -6.262754229603324, -27.073571729970332 -6.734618561215485 M-27.467460634214884 -5.548287939305123 C-27.38850818892014 -5.786080125169047, -27.309555743625396 -6.023872311032971, -27.073571729970332 -6.734618561215485 M-27.073571729970332 -6.734618561215485 C-26.95253726910895 -7.033576019585209, -26.831502808247567 -7.332533477954933, -26.604483648808344 -7.893275190886676 M-27.073571729970332 -6.734618561215485 C-26.925533189176015 -7.100276619107923, -26.7774946483817 -7.465934677000362, -26.604483648808344 -7.893275190886676 M-26.604483648808344 -7.893275190886676 C-26.41290037881388 -8.291101950255479, -26.221317108819413 -8.688928709624282, -26.062123974273504 -9.019496659696282 M-26.604483648808344 -7.893275190886676 C-26.397473869437142 -8.323135427050694, -26.190464090065944 -8.752995663214712, -26.062123974273504 -9.019496659696282 M-26.062123974273504 -9.019496659696282 C-25.870796081647185 -9.359218707104292, -25.679468189020863 -9.698940754512302, -25.448721378604247 -10.108655082055243 M-26.062123974273504 -9.019496659696282 C-25.922858047565395 -9.266777414770797, -25.78359212085729 -9.514058169845313, -25.448721378604247 -10.108655082055243 M-25.448721378604247 -10.108655082055243 C-25.180437389801384 -10.520811333194594, -24.91215340099852 -10.932967584333944, -24.76679646464064 -11.156274872382308 M-25.448721378604247 -10.108655082055243 C-25.191763782586523 -10.503410952314297, -24.9348061865688 -10.898166822573351, -24.76679646464064 -11.156274872382308 M-24.76679646464064 -11.156274872382308 C-24.57795448453148 -11.409305921870278, -24.38911250442232 -11.662336971358247, -24.019151408126586 -12.158051136245302 M-24.76679646464064 -11.156274872382308 C-24.57263597851561 -11.41643223540568, -24.378475492390578 -11.676589598429052, -24.019151408126586 -12.158051136245302 M-24.019151408126586 -12.158051136245302 C-23.7995201127107 -12.416042553215547, -23.579888817294812 -12.674033970185793, -23.208858442968662 -13.10986736009567 M-24.019151408126586 -12.158051136245302 C-23.78184100307878 -12.436809441359033, -23.544530598030978 -12.715567746472765, -23.208858442968662 -13.10986736009567 M-23.208858442968662 -13.10986736009567 C-22.96864270983978 -13.35790982662971, -22.7284269767109 -13.605952293163748, -22.339247236767996 -14.007812326905677 M-23.208858442968662 -13.10986736009567 C-22.98899630099209 -13.33689307270404, -22.76913415901552 -13.56391878531241, -22.339247236767996 -14.007812326905677 M-22.339247236767996 -14.007812326905677 C-22.059193006695907 -14.262150168828265, -21.77913877662382 -14.516488010750855, -21.413891208501887 -14.848196188198107 M-22.339247236767996 -14.007812326905677 C-22.02824714770626 -14.290254379180103, -21.71724705864452 -14.572696431454531, -21.413891208501887 -14.848196188198107 M-21.413891208501887 -14.848196188198107 C-21.135044848146993 -15.07056874016785, -20.8561984877921 -15.292941292137593, -20.43659284457872 -15.627565626425149 M-21.413891208501887 -14.848196188198107 C-21.132354211137912 -15.072714451581735, -20.850817213773936 -15.29723271496536, -20.43659284457872 -15.627565626425149 M-20.43659284457872 -15.627565626425149 C-20.07846711327219 -15.87737863357154, -19.72034138196566 -16.127191640717932, -19.41136807360571 -16.342718045390885 M-20.43659284457872 -15.627565626425149 C-20.074023767955506 -15.88047811891514, -19.711454691332296 -16.13339061140513, -19.41136807360571 -16.342718045390885 M-19.41136807360571 -16.342718045390885 C-18.994349328329303 -16.59551725945161, -18.57733058305289 -16.84831647351234, -18.34242976407679 -16.99071473040609 M-19.41136807360571 -16.342718045390885 C-19.119010080229483 -16.519947179061827, -18.826652086853255 -16.697176312732772, -18.34242976407679 -16.99071473040609 M-18.34242976407679 -16.99071473040609 C-18.063212872360086 -17.13638200396774, -17.78399598064338 -17.282049277529392, -17.234170412792388 -17.56889292409717 M-18.34242976407679 -16.99071473040609 C-17.977319766672395 -17.18119238218785, -17.612209769268 -17.371670033969608, -17.234170412792388 -17.56889292409717 M-17.234170412792388 -17.56889292409717 C-16.97728931821799 -17.682606564558327, -16.720408223643595 -17.796320205019484, -16.091144095147804 -18.07487676824742 M-17.234170412792388 -17.56889292409717 C-16.784517737947176 -17.767940824778464, -16.33486506310196 -17.966988725459757, -16.091144095147804 -18.07487676824742 M-16.091144095147804 -18.07487676824742 C-15.78028506448596 -18.189275765080357, -15.469426033824117 -18.303674761913296, -14.918047751460618 -18.506587066708033 M-16.091144095147804 -18.07487676824742 C-15.6559872678708 -18.235018503230975, -15.220830440593797 -18.395160238214526, -14.918047751460618 -18.506587066708033 M-14.918047751460618 -18.506587066708033 C-14.634036923203581 -18.590879989731462, -14.350026094946546 -18.675172912754892, -13.719701886235413 -18.862249829261067 M-14.918047751460618 -18.506587066708033 C-14.606143849192456 -18.59915850768423, -14.294239946924293 -18.69172994866043, -13.719701886235413 -18.862249829261067 M-13.719701886235413 -18.862249829261067 C-13.329088348741596 -18.951404820202484, -12.93847481124778 -19.0405598111439, -12.501030759676768 -19.140403561325773 M-13.719701886235413 -18.862249829261067 C-13.376910620264193 -18.940489698796938, -13.03411935429297 -19.01872956833281, -12.501030759676768 -19.140403561325773 M-12.501030759676768 -19.140403561325773 C-12.21782344547115 -19.186190323581013, -11.934616131265535 -19.231977085836256, -11.26704215284788 -19.3399052695533 M-12.501030759676768 -19.140403561325773 C-12.063498853183582 -19.21114032685698, -11.625966946690395 -19.28187709238819, -11.26704215284788 -19.3399052695533 M-11.26704215284788 -19.3399052695533 C-10.94322188413205 -19.371143821425463, -10.619401615416221 -19.402382373297627, -10.022806789623903 -19.45993515863156 M-11.26704215284788 -19.3399052695533 C-10.99654359521703 -19.365999940085835, -10.726045037586182 -19.392094610618372, -10.022806789623903 -19.45993515863156 M-10.022806789623903 -19.45993515863156 C-9.756229466049154 -19.46848377453732, -9.489652142474407 -19.477032390443078, -8.773437500000005 -19.5 M-10.022806789623903 -19.45993515863156 C-9.769787928948183 -19.468048981022093, -9.516769068272463 -19.476162803412628, -8.773437500000005 -19.5 M-8.773437500000005 -19.5 C-8.773437500000004 -19.5, -8.773437500000002 -19.5, -8.7734375 -19.5 M-8.773437500000005 -19.5 C-8.773437500000004 -19.5, -8.773437500000002 -19.5, -8.7734375 -19.5" stroke="#9370DB" stroke-width="1.3" fill="none" stroke-dasharray="0 0" style=""/></g><g class="label" style="" transform="translate(-15.8984375, -12)"><rect/><foreignObject width="31.796875" height="24"><div xmlns="http://www.w3.org/1999/xhtml" style="display: table-cell; white-space: nowrap; line-height: 1.5; max-width: 200px; text-align: center;"><span class="nodeLabel"><p>User</p></span></div></foreignObject></g></g><g class="node default" id="my-svg-flowchart-cli-1" data-look="classic" transform="translate(197.15234375, 161)"><rect class="basic label-container" style="" x="-69.2890625" y="-27" width="138.578125" height="54"/><g class="label" style="" transform="translate(-39.2890625, -12)"><rect/><foreignObject width="78.578125" height="24"><div xmlns="http://www.w3.org/1999/xhtml" style="display: table-cell; white-space: nowrap; line-height: 1.5; max-width: 200px; text-align: center;"><span class="nodeLabel"><p>CLI (cli.py)</p></span></div></foreignObject></g></g><g class="node default" id="my-svg-flowchart-admin-2" data-look="classic" transform="translate(1263.34765625, 161)"><rect class="basic label-container" style="" x="-107.5234375" y="-27" width="215.046875" height="54"/><g class="label" style="" transform="translate(-77.5234375, -12)"><rect/><foreignObject width="155.046875" height="24"><div xmlns="http://www.w3.org/1999/xhtml" style="display: table-cell; white-space: nowrap; line-height: 1.5; max-width: 200px; text-align: center;"><span class="nodeLabel"><p>Admin CLI (admin.py)</p></span></div></foreignObject></g></g><g class="node default" id="my-svg-flowchart-api-3" data-look="classic" transform="translate(902.8828125, 161)"><rect class="basic label-container" style="" x="-124.5234375" y="-39" width="249.046875" height="78"/><g class="label" style="" transform="translate(-94.5234375, -24)"><rect/><foreignObject width="189.046875" height="48"><div xmlns="http://www.w3.org/1999/xhtml" style="display: table-cell; white-space: nowrap; line-height: 1.5; max-width: 200px; text-align: center;"><span class="nodeLabel"><p>FastAPI service (server.py)<br />/ask · /metrics · /health</p></span></div></foreignObject></g></g><g class="node default" id="my-svg-flowchart-firewall-4" data-look="classic" transform="translate(762.1015625, 351)"><rect class="basic label-container" style="" x="-130" y="-51" width="260" height="102"/><g class="label" style="" transform="translate(-100, -36)"><rect/><foreignObject width="200" height="72"><div xmlns="http://www.w3.org/1999/xhtml" style="display: table; white-space: break-spaces; line-height: 1.5; max-width: 200px; text-align: center; width: 200px;"><span class="nodeLabel"><p>Guardrail firewall (guardrails.py)<br />input + output</p></span></div></foreignObject></g></g><g class="node default" id="my-svg-flowchart-router-5" data-look="classic" transform="translate(679.6015625, 579.171875)"><polygon points="127.171875,0 254.34375,-127.171875 127.171875,-254.34375 0,-127.171875" class="label-container" transform="translate(-126.671875, 127.171875)"/><g class="label" style="" transform="translate(-88.171875, -24)"><rect/><foreignObject width="176.34375" height="48"><div xmlns="http://www.w3.org/1999/xhtml" style="display: table-cell; white-space: nowrap; line-height: 1.5; max-width: 200px; text-align: center;"><span class="nodeLabel"><p>Router (router.py)<br />documents vs structured</p></span></div></foreignObject></g></g><g class="node default" id="my-svg-flowchart-crag-6" data-look="classic" transform="translate(483.953125, 844.34375)"><rect class="basic label-container" style="" x="-127.0390625" y="-27" width="254.078125" height="54"/><g class="label" style="" transform="translate(-97.0390625, -12)"><rect/><foreignObject width="194.078125" height="24"><div xmlns="http://www.w3.org/1999/xhtml" style="display: table-cell; white-space: nowrap; line-height: 1.5; max-width: 200px; text-align: center;"><span class="nodeLabel"><p>CRAG doc graph (graph.py)</p></span></div></foreignObject></g></g><g class="node default" id="my-svg-flowchart-sqlg-7" data-look="classic" transform="translate(790.9921875, 844.34375)"><rect class="basic label-container" style="" x="-130" y="-39" width="260" height="78"/><g class="label" style="" transform="translate(-100, -24)"><rect/><foreignObject width="200" height="48"><div xmlns="http://www.w3.org/1999/xhtml" style="display: table; white-space: break-spaces; line-height: 1.5; max-width: 200px; text-align: center; width: 200px;"><span class="nodeLabel"><p>Text-to-SQL graph (graph.py)</p></span></div></foreignObject></g></g><g class="node default" id="my-svg-flowchart-qdrant-10" data-look="classic" transform="translate(405.53515625, 1133.34375)"><path d="M0,8.733224888165921 a33.5546875,8.733224888165921 0,0,0 67.109375,0 a33.5546875,8.733224888165921 0,0,0 -67.109375,0 l0,71.73322488816592 a33.5546875,8.733224888165921 0,0,0 67.109375,0 l0,-71.73322488816592" class="basic label-container outer-path" style="" transform="translate(-33.5546875, -44.59983733224888)"/><g class="label" style="" transform="translate(-26.0546875, -14)"><rect/><foreignObject width="52.109375" height="48"><div xmlns="http://www.w3.org/1999/xhtml" style="display: table-cell; white-space: nowrap; line-height: 1.5; max-width: 200px; text-align: center;"><span class="nodeLabel"><p>Qdrant<br />vectors</p></span></div></foreignObject></g></g><g class="node default" id="my-svg-flowchart-sqlite-11" data-look="classic" transform="translate(544.90234375, 1133.34375)"><path d="M0,9.533292088778904 a38.5234375,9.533292088778904 0,0,0 77.046875,0 a38.5234375,9.533292088778904 0,0,0 -77.046875,0 l0,72.53329208877891 a38.5234375,9.533292088778904 0,0,0 77.046875,0 l0,-72.53329208877891" class="basic label-container outer-path" style="" transform="translate(-38.5234375, -45.799938133168354)"/><g class="label" style="" transform="translate(-31.0234375, -14)"><rect/><foreignObject width="62.046875" height="48"><div xmlns="http://www.w3.org/1999/xhtml" style="display: table-cell; white-space: nowrap; line-height: 1.5; max-width: 200px; text-align: center;"><span class="nodeLabel"><p>SQLite<br />acme.db</p></span></div></foreignObject></g></g><g class="node default" id="my-svg-flowchart-ckpt-12" data-look="classic" transform="translate(936.09765625, 1133.34375)"><path d="M0,12.435607488377936 a61.859375,12.435607488377936 0,0,0 123.71875,0 a61.859375,12.435607488377936 0,0,0 -123.71875,0 l0,75.43560748837794 a61.859375,12.435607488377936 0,0,0 123.71875,0 l0,-75.43560748837794" class="basic label-container outer-path" style="" transform="translate(-61.859375, -50.15341123256691)"/><g class="label" style="" transform="translate(-54.359375, -14)"><rect/><foreignObject width="108.71875" height="48"><div xmlns="http://www.w3.org/1999/xhtml" style="display: table-cell; white-space: nowrap; line-height: 1.5; max-width: 200px; text-align: center;"><span class="nodeLabel"><p>Checkpoints<br />checkpoints.db</p></span></div></foreignObject></g></g><g class="node default" id="my-svg-flowchart-prom-13" data-look="classic" transform="translate(115.0078125, 351)"><rect class="basic label-container" style="" x="-72.0078125" y="-27" width="144.015625" height="54"/><g class="label" style="" transform="translate(-42.0078125, -12)"><rect/><foreignObject width="84.015625" height="24"><div xmlns="http://www.w3.org/1999/xhtml" style="display: table-cell; white-space: nowrap; line-height: 1.5; max-width: 200px; text-align: center;"><span class="nodeLabel"><p>Prometheus</p></span></div></foreignObject></g></g><g class="node default" id="my-svg-flowchart-graf-14" data-look="classic" transform="translate(115.0078125, 579.171875)"><rect class="basic label-container" style="" x="-58.4609375" y="-27" width="116.921875" height="54"/><g class="label" style="" transform="translate(-28.4609375, -12)"><rect/><foreignObject width="56.921875" height="24"><div xmlns="http://www.w3.org/1999/xhtml" style="display: table-cell; white-space: nowrap; line-height: 1.5; max-width: 200px; text-align: center;"><span class="nodeLabel"><p>Grafana</p></span></div></foreignObject></g></g></g></g></g><defs><filter id="my-svg-drop-shadow" height="130%" width="130%"><feDropShadow dx="4" dy="4" stdDeviation="0" flood-opacity="0.06" flood-color="#000000"/></filter></defs><defs><filter id="my-svg-drop-shadow-small" height="150%" width="150%"><feDropShadow dx="2" dy="2" stdDeviation="0" flood-opacity="0.06" flood-color="#000000"/></filter></defs></svg>